<svg version="1.1" viewBox="0 0 512 512" xmlns="http://www.w3.org/2000/svg"><g transform="matrix(.87789 0 0 .87789 87.441 87.451)"><path d="m36.735 23.239c-7.4594 0-13.464 6.0048-13.464 13.464v133.95c0 7.3153 5.7789 13.217 13.037 13.443h134.78c7.2586-0.22586 13.039-6.1275 13.039-13.443v-133.95c0-7.4594-6.0065-13.464-13.466-13.464z" fill="#fd3535"/><path d="m213.12 23.239c-7.3516 0.12288-13.235 6.0707-13.235 13.453v133.95c0 7.382 5.8836 13.33 13.235 13.453h134.39c7.351-0.12361 13.234-6.0712 13.234-13.453v-133.95c0-7.3815-5.8826-13.329-13.234-13.453z" fill="#0ca15e"/><path d="m213.11 199.89c-7.3516 0.12288-13.235 6.0707-13.235 13.453v133.95c0 7.382 5.8836 13.33 13.235 13.453h134.39c7.351-0.12361 13.234-6.0712 13.234-13.453v-133.95c0-7.3815-5.8826-13.329-13.234-13.453z" fill="#ffc730"/><path d="m36.506 199.89c-7.3516 0.12288-13.235 6.0707-13.235 13.453v133.95c0 7.382 5.8836 13.33 13.235 13.453h134.39c7.351-0.12361 13.234-6.0712 13.234-13.453v-133.95c0-7.3815-5.8826-13.329-13.234-13.453z"/><path d="m36.506 199.89c-7.3516 0.12288-13.235 6.0707-13.235 13.453v133.95c0 7.382 5.8836 13.33 13.235 13.453h134.39c7.351-0.12361 13.234-6.0712 13.234-13.453v-133.95c0-7.3815-5.8826-13.329-13.234-13.453z" fill="#367bf0"/><path d="m36.735 23.239c-7.4594 0-13.464 6.0048-13.464 13.464v8.4368c0-7.4594 6.0048-13.464 13.464-13.464h133.93c7.4594 0 13.466 6.0048 13.466 13.464v-8.4368c0-7.4594-6.0065-13.464-13.466-13.464zm176.38 0c-7.3516 0.12288-13.235 6.0707-13.235 13.453v8.4368c0-7.382 5.8836-13.33 13.235-13.453h134.39c7.351 0.12361 13.234 6.0712 13.234 13.453v-8.4368c0-7.3815-5.8826-13.329-13.234-13.453zm-176.61 176.65c-7.3516 0.12288-13.235 6.0707-13.235 13.453v8.4368c0-7.382 5.8836-13.33 13.235-13.453h134.39c7.351 0.12361 13.234 6.0712 13.234 13.453v-8.4368c0-7.3815-5.8826-13.329-13.234-13.453zm176.61 0c-7.3516 0.12288-13.235 6.0707-13.235 13.453v8.4368c0-7.382 5.8836-13.33 13.235-13.453h134.39c7.351 0.12361 13.234 6.0712 13.234 13.453v-8.4368c0-7.3815-5.8826-13.329-13.234-13.453z" fill="#fff" opacity=".1"/><path d="m199.88 153.77v16.874c0 6.1948 4.1651 11.332 9.8424 12.912 1.0875-0.30253 2.2095-0.52073 3.3912-0.54048h134.39c1.1809 0.0199 2.3027 0.23821 3.3896 0.54048 5.6792-1.5788 9.8456-6.716 9.8456-12.912v-16.874c0 7.3815-5.8826 13.329-13.234 13.453h-134.39c-7.3516-0.12288-13.235-6.0707-13.235-13.453zm-176.61 0.01v16.874c0 6.1886 4.1539 11.324 9.8226 12.909 1.094-0.30632 2.223-0.52719 3.4126-0.54707h134.39c1.1883 0.02 2.3164 0.24128 3.4093 0.54707 5.669-1.5846 9.8242-6.7204 9.8242-12.909v-16.874c0 7.3153-5.7806 13.217-13.039 13.443h-134.78c-7.2586-0.22586-13.037-6.1275-13.037-13.443zm0 176.64v16.874c0 7.382 5.8836 13.33 13.235 13.453h134.39c7.351-0.12361 13.234-6.0712 13.234-13.453v-16.874c0 7.3815-5.8826 13.329-13.234 13.453h-134.39c-7.3516-0.12288-13.235-6.0707-13.235-13.453zm176.61 0v16.874c0 7.382 5.8836 13.33 13.235 13.453h134.39c7.351-0.12361 13.234-6.0712 13.234-13.453v-16.874c0 7.3815-5.8826 13.329-13.234 13.453h-134.39c-7.3516-0.12288-13.235-6.0707-13.235-13.453z" opacity=".3"/></g><path d="m137.06 170.78c-8.7584 0.0546-15.297 0.0854-19.946 0.13583-4.639 0.0503-7.1318 0.0511-8.7616 0.20377-0.16947 0.0159-0.46298 0.0751-0.79241 0.13583-0.0996 0.0186-0.45357 0.0732-0.79241 0.18112 0.42519-0.13556-0.16922-0.0168-0.74706 0.24904-0.57796 0.26564-1.0998 0.66589-1.5848 1.132-0.78358 0.75288-1.6915 2.0028-1.8111 3.894-0.126 1.9756 0.60646 3.265 1.4489 4.2336 0.47468 0.54581 1.0024 1.0329 1.6074 1.3584 0.60497 0.32549 1.254 0.50258 0.76981 0.31695 0.59267 0.22714 1.3443 0.33457 1.2452 0.31697 0.87272 0.15518 1.6842 0.22916 2.83 0.31694 2.3529 0.18034 6.0868 0.38037 11.071 0.67919 48.824 2.9278 80.453 7.9564 107.58 15.056-46.969 2.1329-85.554 5.3729-117.61 11.207-10.472 1.9053-16.685 3.0682-20.489 3.9845-1.8441 0.44434-3.2439 0.79658-4.6864 1.5395-0.26406 0.136-2.3391 1.3148-3.1922 3.3054-0.64194 1.4977-0.70511 2.7646-0.20378 4.3243 0.38994 1.211 1.1299 2.1262 1.5621 2.5582 0.52904 0.52902 1.1314 0.94882 1.7432 1.2226 0.6118 0.27376 1.1937 0.39611 0.90564 0.31697 0.42425 0.1181 0.84468 0.16575 0.97346 0.18111 0.01508 1.1e-4 0.03013 1.1e-4 0.0452 0 0.40791 0.0472 0.76446 0.064 1.0188 0.068 0.57691 5e-3 1.1579-0.0285 1.8337-0.068 1.3714-0.0775 3.1583-0.24413 5.3203-0.45279 4.3255-0.41757 10.112-1.0523 16.414-1.8566 32.833-4.1897 63.647-6.9612 89.563-8.0597 5.7189-0.24249 13.045-0.0104 20.014 0-26.046 6.6889-55.529 16.338-77.293 27.1-8.2665 4.087-16.331 8.6294-22.323 12.429-2.9923 1.8977-5.449 3.5675-7.3127 5.0939-0.89859 0.73612-1.7682 1.5012-2.5582 2.513-0.29131 0.37305-0.99444 1.3561-1.3357 2.5582-0.3081 1.0856-0.26719 1.9588-0.0684 2.9658 0.19984 1.007 0.61066 2.1503 1.63 3.1696 0.81291 0.81293 1.7978 1.3841 2.7621 1.6074 0.96431 0.22349 1.9692 0.11125 1.4943 0.11354 0.55164-2e-3 1.1254-0.0967 1.2226-0.11354v-0.0228c0.47341-0.0945 0.87748-0.18834 1.1321-0.27168 0.60301-0.19754 1.2286-0.44758 1.9697-0.74708 1.4886-0.60179 3.4522-1.4617 5.8411-2.5356 4.7522-2.1365 11.175-5.1389 18.135-8.5126l0.0905-0.0456c39.949-17.849 73.659-30.425 120.67-32.76 0.47216 1.0471 0.90564 1.9745 1.449 3.2601v0.0228l3.4866 7.9918c-19.194 13.678-26.751 34.769-22.98 53.972 3.9527 20.129 19.449 37.936 43.174 41.906 6.0782 0.99289 12.933 1.5917 20.739 1.9016 40.289-1.6487 62.489 33.563 75.074 64.478 1.474 4.0282 2.7499 7.9355 3.6224 11.138 0.86347 3.1698 1.2894 6.1098 1.2905 6.475 3e-3 1.7774 0.20463 3.5076 0.74707 5.1392 0.25245 0.75904 0.69319 1.7921 1.449 2.7621 0.87963 1.129 2.6266 2.6262 5.2298 2.6262 2.0416 0 3.394-0.74903 4.5506-1.9471 0.83891-0.86899 1.3152-1.8836 1.5169-2.4224 0.44912-1.2001 0.54692-2.3188 0.61125-3.2148 0.1392-1.9384 0.0369-4.1216-0.20376-6.6108-0.48301-4.9986-1.5588-11.285-3.1242-17.568-3.8398-15.412-12.59-35.166-23.387-48.29 17.26 4.9677 32.886 23.733 37.242 36.54 0.40577 1.1916 1.0519 2.599 2.1734 3.8034 0.46944 0.50366 1.666 1.5717 3.2601 1.9924 1.2387 0.32686 2.2187 0.19265 3.1922-0.0684 0.97366-0.26003 1.9358-0.64614 2.8526-1.5622 2.1229-2.1229 2.0082-5.3755 1.9697-5.9542-0.0814-1.2806-0.33198-2.4967-0.65656-3.7356-0.6572-2.5124-1.6767-5.3846-2.9432-8.4447-2.531-6.1155-5.9164-12.828-9.3728-17.523-12.548-17.045-38-30.236-66.583-36.11-6.9224-1.4226-22.061-3.7582-34.978-3.7582 0.38849 0-0.93324-0.0336-2.2639-0.13583-1.3307-0.10106-3.0567-0.27806-4.9129-0.43019-3.7124-0.30428-7.874-0.6456-10.075-0.83772-20.706-1.8081-29.59-16.964-28.798-31.946 0.79216-14.981 11.269-29.341 32.488-29.341 6.3717 0 9.8198 0.25777 15.531 1.9017 5.6905 1.638 13.656 4.8076 27.462 10.663 5.9874 2.5398 9.365 4.2205 10.573 5.0487 1.5164 1.0398 0.6081-0.14734 1.1093 1.5395 0.41642 1.401 0.30654 5.2702 3.4639 8.2182 1.9712 1.841 4.1838 2.5176 6.7692 3.6224 2.557 1.0926 5.2229 2.206 6.5656 2.9432 5.6618 3.3157 7.8861 4.7694 12.724 11.094 1.3059 1.7182 3.8864 1.7289 5.2072 0.0228 5.08-6.5559 5.875-5.921 12.361-8.0823 3.3735-1.0962 2.8494-6.0225-0.67916-6.3844-3.7838-0.42239-9.0521-2.8881-12.09-5.1844-0.79271-0.5993-0.8352-0.7423-1.2452-1.2 1.0435-1.3588 0.86586-3.2914-0.40759-4.4374-2.2631-2.0292-3.8936-5.1499-5.2524-8.173-0.32372-0.72023-0.64255-1.3695-0.95083-2.0602-5e-3 -0.0185-0.0163-0.0272-0.0228-0.0457-0.17855-0.55233-0.39328-1.0363-0.58865-1.4263-0.0793-0.15834-0.20864-0.31817-0.29427-0.47552-0.051-0.10002-0.0848-0.21886-0.13582-0.31688-0.30537-0.57907-0.66168-1.1676-1.0641-1.7206-5e-3 -9e-3 -0.0186-0.0142-0.0228-0.0228l-0.0227-0.0457c-0.10325-0.21461-0.19332-0.43054-0.31687-0.63396-0.39196-0.64503-0.88455-1.3446-1.4943-2.1281-0.69034-0.83859-1.508-1.5762-2.2187-2.3998-12.217-16.052-27.645-29.88-44.579-40.116-1.4181-0.85144-2.6587-1.5499-3.962-2.0602-0.49104-0.1922-1.5192-0.57459-2.7395-0.61127-0.57472-0.0171-1.8886 0.0712-3.1016 0.74712-1.6689 0.92863-2.4566 2.0586-2.83 3.8487-0.0554 0.26386 0.0282 0.49912 0.0228 0.76975-0.0196 0.0821-0.12629 0.14801-0.13585 0.22639-0.0619 0.49794 0.075 0.58394 0.15845 0.83768 0.13495 0.898 0.33925 1.6204 0.29425 1.5169l0.0228 0.0226c0.19485 0.43898 0.46542 0.85998 0.54335 0.9735 0.2472 0.35947 0.50397 0.65152 0.61124 0.76973h0.0228c0.31491 0.34579 0.61504 0.65909 0.95082 0.97352 0.68982 0.64454 1.5725 1.4178 2.649 2.3318l0.0684 0.0453 0.0457 0.0454c11.776 8.9938 24.397 20.117 33.054 29.341-45.579-32.098-75.732-5.9682-80.167-46.207v-12.791c2e-3 -1.3503-0.82522-2.5632-2.0822-3.0563l-11.071-4.347c-32.655-12.819-66.14-17.093-127.95-16.708z" fill="#fff" stroke="#000" stroke-linecap="round" stroke-linejoin="round" stroke-width="30.532" style="paint-order:stroke fill markers"/><path d="m137.06 170.78c-8.7584 0.0546-15.297 0.0854-19.946 0.13583-4.639 0.0503-7.1318 0.0511-8.7616 0.20377-0.16947 0.0159-0.46298 0.0751-0.79241 0.13583-0.0996 0.0186-0.45357 0.0732-0.79241 0.18112 0.42519-0.13556-0.16922-0.0168-0.74706 0.24904-0.57796 0.26564-1.0998 0.66589-1.5848 1.132-0.78358 0.75288-1.6915 2.0028-1.8111 3.894-0.126 1.9756 0.60646 3.265 1.4489 4.2336 0.47468 0.54581 1.0024 1.0329 1.6074 1.3584 0.60497 0.32549 1.254 0.50258 0.76981 0.31695 0.59267 0.22714 1.3443 0.33457 1.2452 0.31697 0.87272 0.15518 1.6842 0.22916 2.83 0.31694 2.3529 0.18034 6.0868 0.38037 11.071 0.67919 48.824 2.9278 80.453 7.9564 107.58 15.056-46.969 2.1329-85.554 5.3729-117.61 11.207-10.472 1.9053-16.685 3.0682-20.489 3.9845-1.8441 0.44434-3.2439 0.79658-4.6864 1.5395-0.26406 0.136-2.3391 1.3148-3.1922 3.3054-0.64194 1.4977-0.70511 2.7646-0.20378 4.3243 0.38994 1.211 1.1299 2.1262 1.5621 2.5582 0.52904 0.52902 1.1314 0.94882 1.7432 1.2226 0.6118 0.27376 1.1937 0.39611 0.90564 0.31697 0.42425 0.1181 0.84468 0.16575 0.97346 0.18111 0.01508 1.1e-4 0.03013 1.1e-4 0.0452 0 0.40791 0.0472 0.76446 0.064 1.0188 0.068 0.57691 5e-3 1.1579-0.0285 1.8337-0.068 1.3714-0.0775 3.1583-0.24413 5.3203-0.45279 4.3255-0.41757 10.112-1.0523 16.414-1.8566 32.833-4.1897 63.647-6.9612 89.563-8.0597 5.7189-0.24249 13.045-0.0104 20.014 0-26.046 6.6889-55.529 16.338-77.293 27.1-8.2665 4.087-16.331 8.6294-22.323 12.429-2.9923 1.8977-5.449 3.5675-7.3127 5.0939-0.89859 0.73612-1.7682 1.5012-2.5582 2.513-0.29131 0.37305-0.99444 1.3561-1.3357 2.5582-0.3081 1.0856-0.26719 1.9588-0.0684 2.9658 0.19984 1.007 0.61066 2.1503 1.63 3.1696 0.81291 0.81293 1.7978 1.3841 2.7621 1.6074 0.96431 0.22349 1.9692 0.11125 1.4943 0.11354 0.55164-2e-3 1.1254-0.0967 1.2226-0.11354v-0.0228c0.47341-0.0945 0.87748-0.18834 1.1321-0.27168 0.60301-0.19754 1.2286-0.44758 1.9697-0.74708 1.4886-0.60179 3.4522-1.4617 5.8411-2.5356 4.7522-2.1365 11.175-5.1389 18.135-8.5126l0.0905-0.0456c39.949-17.849 73.659-30.425 120.67-32.76 0.47216 1.0471 0.90564 1.9745 1.449 3.2601v0.0228l3.4866 7.9918c-19.194 13.678-26.751 34.769-22.98 53.972 3.9527 20.129 19.449 37.936 43.174 41.906 6.0782 0.99289 12.933 1.5917 20.739 1.9016 40.289-1.6487 62.489 33.563 75.074 64.478 1.474 4.0282 2.7499 7.9355 3.6224 11.138 0.86347 3.1698 1.2894 6.1098 1.2905 6.475 3e-3 1.7774 0.20463 3.5076 0.74707 5.1392 0.25245 0.75904 0.69319 1.7921 1.449 2.7621 0.87963 1.129 2.6266 2.6262 5.2298 2.6262 2.0416 0 3.394-0.74903 4.5506-1.9471 0.83891-0.86899 1.3152-1.8836 1.5169-2.4224 0.44912-1.2001 0.54692-2.3188 0.61125-3.2148 0.1392-1.9384 0.0369-4.1216-0.20376-6.6108-0.48301-4.9986-1.5588-11.285-3.1242-17.568-3.8398-15.412-12.59-35.166-23.387-48.29 17.26 4.9677 32.886 23.733 37.242 36.54 0.40577 1.1916 1.0519 2.599 2.1734 3.8034 0.46944 0.50366 1.666 1.5717 3.2601 1.9924 1.2387 0.32686 2.2187 0.19265 3.1922-0.0684 0.97366-0.26003 1.9358-0.64614 2.8526-1.5622 2.1229-2.1229 2.0082-5.3755 1.9697-5.9542-0.0814-1.2806-0.33198-2.4967-0.65656-3.7356-0.6572-2.5124-1.6767-5.3846-2.9432-8.4447-2.531-6.1155-5.9164-12.828-9.3728-17.523-12.548-17.045-38-30.236-66.583-36.11-6.9224-1.4226-22.061-3.7582-34.978-3.7582 0.38849 0-0.93324-0.0336-2.2639-0.13583-1.3307-0.10106-3.0567-0.27806-4.9129-0.43019-3.7124-0.30428-7.874-0.6456-10.075-0.83772-20.706-1.8081-29.59-16.964-28.798-31.946 0.79216-14.981 11.269-29.341 32.488-29.341 6.3717 0 9.8198 0.25777 15.531 1.9017 5.6905 1.638 13.656 4.8076 27.462 10.663 5.9874 2.5398 9.365 4.2205 10.573 5.0487 1.5164 1.0398 0.6081-0.14734 1.1093 1.5395 0.41642 1.401 0.30654 5.2702 3.4639 8.2182 1.9712 1.841 4.1838 2.5176 6.7692 3.6224 2.557 1.0926 5.2229 2.206 6.5656 2.9432 5.6618 3.3157 7.8861 4.7694 12.724 11.094 1.3059 1.7182 3.8864 1.7289 5.2072 0.0228 5.08-6.5559 5.875-5.921 12.361-8.0823 3.3735-1.0962 2.8494-6.0225-0.67916-6.3844-3.7838-0.42239-9.0521-2.8881-12.09-5.1844-0.79271-0.5993-0.8352-0.7423-1.2452-1.2 1.0435-1.3588 0.86586-3.2914-0.40759-4.4374-2.2631-2.0292-3.8936-5.1499-5.2524-8.173-0.32372-0.72023-0.64255-1.3695-0.95083-2.0602-5e-3 -0.0185-0.0163-0.0272-0.0228-0.0457-0.17855-0.55233-0.39328-1.0363-0.58865-1.4263-0.0793-0.15834-0.20864-0.31817-0.29427-0.47552-0.051-0.10002-0.0848-0.21886-0.13582-0.31688-0.30537-0.57907-0.66168-1.1676-1.0641-1.7206-5e-3 -9e-3 -0.0186-0.0142-0.0228-0.0228l-0.0227-0.0457c-0.10325-0.21461-0.19332-0.43054-0.31687-0.63396-0.39196-0.64503-0.88455-1.3446-1.4943-2.1281-0.69034-0.83859-1.508-1.5762-2.2187-2.3998-12.217-16.052-27.645-29.88-44.579-40.116-1.4181-0.85144-2.6587-1.5499-3.962-2.0602-0.49104-0.1922-1.5192-0.57459-2.7395-0.61127-0.57472-0.0171-1.8886 0.0712-3.1016 0.74712-1.6689 0.92863-2.4566 2.0586-2.83 3.8487-0.0554 0.26386 0.0282 0.49912 0.0228 0.76975-0.0196 0.0821-0.12629 0.14801-0.13585 0.22639-0.0619 0.49794 0.075 0.58394 0.15845 0.83768 0.13495 0.898 0.33925 1.6204 0.29425 1.5169l0.0228 0.0226c0.19485 0.43898 0.46542 0.85998 0.54335 0.9735 0.2472 0.35947 0.50397 0.65152 0.61124 0.76973h0.0228c0.31491 0.34579 0.61504 0.65909 0.95082 0.97352 0.68982 0.64454 1.5725 1.4178 2.649 2.3318l0.0684 0.0453 0.0457 0.0454c11.776 8.9938 24.397 20.117 33.054 29.341-45.579-32.098-75.732-5.9682-80.167-46.207v-12.791c2e-3 -1.3503-0.82522-2.5632-2.0822-3.0563l-11.071-4.347c-32.655-12.819-66.14-17.093-127.95-16.708z" fill="#fff" stroke-width="15.186" style="paint-order:stroke fill markers"/><path d="m102.82 172.65c-0.0878 0.3453-0.16408 0.70338-0.1895 1.1052-0.0453 0.71136 0.0474 1.3083 0.1895 1.8589-0.0877 0.3449-0.16411 0.70245-0.1895 1.1038-0.126 1.9757 0.60556 3.2655 1.448 4.2342 0.47468 0.54581 1.0022 1.0328 1.6072 1.3584 0.60496 0.3255 1.2552 0.50243 0.77102 0.3168 0.59268 0.22714 1.3432 0.3344 1.2441 0.31681 0.87273 0.15517 1.6852 0.22902 2.831 0.3168 2.3529 0.18034 6.0867 0.38107 11.071 0.67991 43.049 2.5815 82.567 9.2274 107.58 15.055v-5.9252c-27.131-7.0992-58.76-12.127-107.58-15.055-4.9841-0.29883-8.7178-0.49957-11.071-0.67991-1.1458-0.0878-1.9582-0.16162-2.831-0.31679 0.0991 0.0176-0.6514-0.0898-1.2441-0.31682 0.48421 0.18563-0.16606 8e-3 -0.77102-0.3168-0.60495-0.32554-1.1325-0.81253-1.6072-1.3584-0.53928-0.62003-1.0057-1.398-1.2585-2.3768zm0.39058 3.9535c0.25329 0.5113 0.53213 0.9997 0.86796 1.3858-0.33725-0.38776-0.62211-0.86408-0.86796-1.3858zm108.71 34.642c-3.4176-0.0291-6.6794-0.0257-9.5388 0.0955-25.917 1.0985-56.73 3.8707-89.563 8.0604-6.3021 0.80422-12.089 1.4384-16.414 1.856-2.162 0.20865-3.9478 0.37527-5.3191 0.45278-0.67579 0.0393-1.2574 0.0731-1.8343 0.068-0.25432-4e-3 -0.61049-0.0208-1.0184-0.068-0.01508 1e-4 -0.03121 1e-4 -0.04629 0-0.12878-0.0153-0.54786-0.0627-0.97211-0.18083 0.28805 0.0791-0.29521-0.0431-0.90701-0.3168-0.61179-0.27378-1.2141-0.69481-1.7431-1.2238-0.43216-0.43205-1.1709-1.3466-1.5609-2.5576-0.03882-0.12077-0.01858-0.22101-0.05063-0.33851-0.25161 0.97455-0.27247 1.9277-0.0015 2.9757-0.27546 1.0736-0.32781 2.1062 0.05207 3.2881 0.38994 1.211 1.1287 2.1255 1.5609 2.5576 0.52904 0.529 1.1314 0.95003 1.7431 1.2238 0.6118 0.27377 1.1951 0.39594 0.90701 0.31681 0.42425 0.1181 0.84333 0.16546 0.97211 0.18083 0.01508 1e-4 0.03121 1e-4 0.04629 0 0.40791 0.0472 0.76408 0.0641 1.0184 0.068 0.57691 5e-3 1.1585-0.0285 1.8343-0.068 1.3714-0.0775 3.1571-0.24413 5.3191-0.4528 4.3255-0.41757 10.112-1.0517 16.414-1.856 32.833-4.1897 63.646-6.9619 89.563-8.0604 2.8934-0.12267 16.553-0.0301 20.015 0v-5.9252c-3.4844-5e-3 -7.0587-0.0665-10.476-0.0955zm108.28 1.2976c-0.0514 0.18075-0.11825 0.34071-0.15913 0.53669-0.0554 0.26386 0.0272 0.49894 0.0218 0.76958-0.0196 0.0821-0.12643 0.14874-0.13598 0.22712-0.062 0.49794 0.0756 0.58383 0.15913 0.83758 0.0527 0.35043 0.0596 0.3335 0.11427 0.59165-0.0514 0.18075-0.11824 0.34071-0.15912 0.53668-0.0554 0.26387 0.0272 0.49897 0.0218 0.7696-0.0196 0.0821-0.12642 0.14872-0.13599 0.22711-0.0619 0.49794 0.0756 0.58383 0.15913 0.83758 0.13496 0.898 0.33866 1.6196 0.29366 1.516l0.0231 0.023c0.19485 0.43897 0.466 0.86002 0.54392 0.97355 0.24721 0.35946 0.5032 0.65134 0.61045 0.76958h0.0231c0.31491 0.34579 0.61464 0.65911 0.95042 0.97357 0.68981 0.64452 1.5723 1.4178 2.6487 2.3319l0.0694 0.0449 0.0448 0.0463c8.3892 6.4071 25.546 22.229 33.054 29.34-1.7588-3.5033-1.8798-4.4532 4.6e-4 -5.9259-8.6574-9.2236-21.279-20.346-33.055-29.34l-0.0448-0.0463-0.0694-0.0449c-1.0764-0.91408-1.9589-1.6874-2.6487-2.3319-0.33578-0.31445-0.63551-0.62778-0.95042-0.97357h-0.0231c-0.10726-0.11822-0.36324-0.41011-0.61045-0.76957-0.0779-0.11353-0.34907-0.53458-0.54392-0.97356l-0.0231-0.023c0.0274 0.0631-0.0936-0.52075-0.17938-0.92438zm5.0935 9.0499c2.5508 1.9481 5.129 4.0137 7.7031 6.1191-2.5743-2.1009-5.1593-4.1763-7.7031-6.1191zm-58.84 2.29c-47.014 2.3341-80.725 14.91-120.67 32.76l-0.0898 0.0463c-6.9601 3.3736-13.384 6.3753-18.136 8.5118-2.3889 1.0739-4.3527 1.9341-5.8414 2.5359-0.7411 0.29949-1.3658 0.55035-1.9688 0.7479-0.25461 0.0833-0.65929 0.17597-1.1327 0.2705v0.0231c-0.0971 0.0168-0.67074 0.11206-1.2224 0.11428 0.47497-2e-3 -0.53004 0.10921-1.4943-0.11428-0.96431-0.22332-1.9486-0.79423-2.7616-1.6072-0.97311-0.97307-1.3742-2.0536-1.584-3.0263-0.26152 1.0144-0.23552 1.8611-0.0463 2.8194 9e-3 0.0457 0.0363 0.097 0.0463 0.14322-0.26152 1.0143-0.23552 1.8611-0.0463 2.8194 0.19983 1.007 0.61096 2.1502 1.6303 3.1695 0.81292 0.81294 1.7972 1.3838 2.7616 1.6072 0.9643 0.22349 1.9693 0.11199 1.4943 0.11428 0.55164-2e-3 1.1252-0.0974 1.2224-0.11428v-0.0231c0.4734-0.0945 0.87807-0.18717 1.1327-0.27051 0.60299-0.19754 1.2277-0.44841 1.9688-0.74789 1.4886-0.60179 3.4524-1.4619 5.8413-2.5359 4.7522-2.1365 11.176-5.1381 18.136-8.5118l0.0898-0.0463c39.949-17.849 73.659-30.425 120.67-32.76 0.47215 1.0471 0.90617 1.975 1.4495 3.2606v0.0231l3.4863 7.991c0.32875-0.24385 0.63333-0.50274 0.96922-0.74211 0.32875-0.24385 0.63333-0.50274 0.96922-0.7421l-5.4247-12.432v-0.0231c-0.54332-1.2856-0.97734-2.2135-1.4495-3.2606zm69.541 6.3158c1.0456 0.87662 2.0499 1.7461 3.0827 2.6342-1.0275-0.88126-2.0426-1.7644-3.0827-2.6342zm-33.7 17.795c-21.219 0-31.695 14.359-32.488 29.34-0.0574 1.0858-0.0478 2.1709-3e-3 3.2534 5e-3 -0.097-2e-3 -0.1938 3e-3 -0.29076-0.0574 1.0858-0.0478 2.1709-3e-3 3.2534 5e-3 -0.097-2e-3 -0.19381 3e-3 -0.29077 0.79216-14.981 11.268-29.34 32.488-29.34 6.3717 0 9.8199 0.25693 15.531 1.9008 5.6905 1.638 13.656 4.8072 27.462 10.663 5.9874 2.5398 9.364 4.2218 10.572 5.0501 1.5164 1.0398 0.60837-0.14765 1.1095 1.5392 0.41642 1.401 0.3072 5.2701 3.4646 8.2181 1.9712 1.841 4.1832 2.5175 6.7686 3.6223 2.557 1.0926 5.2234 2.2052 6.5661 2.9424 5.6618 3.3157 7.8852 4.7696 12.723 11.094 1.3059 1.7182 3.887 1.7293 5.2077 0.0231 5.08-6.5559 5.8754-5.9208 12.361-8.0821 2.1612-0.70228 2.7055-2.967 1.9023-4.606-0.0564 0.11485-0.16341 0.20231-0.2329 0.31102 0.63907-0.98378 0.74113-2.2366 0.2329-3.2736-0.35357 0.7209-0.95997 1.3371-1.9023 1.6433-6.4857 2.1614-7.2811 1.5262-12.361 8.0821-1.3207 1.7061-3.9018 1.695-5.2077-0.0231-4.8376-6.3243-7.061-7.7782-12.723-11.094-1.3427-0.7372-4.009-1.8497-6.5661-2.9424-2.5855-1.1048-4.7974-1.7812-6.7686-3.6223-3.1574-2.948-3.0482-6.8171-3.4646-8.2181-0.50117-1.6868 0.40691-0.49935-1.1095-1.5392-1.2077-0.82825-4.5843-2.5102-10.572-5.0501-13.806-5.8557-21.772-9.0248-27.462-10.663-5.7107-1.6439-9.1589-1.9008-15.531-1.9008zm-190.25 20.602c0.25337 0.52158 0.59333 1.0447 1.0864 1.5377-0.4945-0.49447-0.83735-1.016-1.0864-1.5377zm278.28 3.035c-0.0937 0.18927-0.15037 0.39078-0.28353 0.56417 0.21626 0.24144 0.48095 0.45414 0.65675 0.63361-0.0423-0.41751-0.17365-0.82074-0.37322-1.1978zm0 2.9626c-0.0937 0.18926-0.15037 0.39078-0.28353 0.56418 0.21626 0.24143 0.48095 0.45413 0.65675 0.6336-0.0423-0.41751-0.17365-0.82074-0.37322-1.1978zm-142.81 6.0931c-0.051 1.4952 0.0168 2.9871 0.0955 4.4772-0.0262-0.50534-0.083-1.0084-0.0955-1.5146-0.13071 3.8282 0.15822 7.653 0.89543 11.406 3.9527 20.129 19.449 37.937 43.174 41.906 6.0782 0.99289 12.934 1.5909 20.74 1.9008 40.289-1.6487 62.489 33.564 75.074 64.479 1.474 4.0282 2.7498 7.9346 3.6223 11.137 0.86346 3.1698 1.2893 6.1098 1.2904 6.475 3e-3 1.7775 0.204 3.5081 0.74645 5.1397 0.25243 0.75904 0.69369 1.7916 1.4495 2.7616 0.87965 1.129 2.6262 2.627 5.2294 2.627 2.0416 0 3.3943-0.74906 4.551-1.9471 0.8389-0.86899 1.3143-1.8843 1.516-2.423 0.44912-1.2001 0.54758-2.3184 0.61191-3.2143 0.0789-1.0985 0.0645-2.3004 7e-3 -3.5673-9e-3 0.19384 6e-3 0.41555-7e-3 0.60469 0.0789-1.0985 0.0645-2.3004 7e-3 -3.5673-9e-3 0.19384 6e-3 0.41555-7e-3 0.60468-0.0644 0.89595-0.16279 2.0142-0.61191 3.2143-0.20169 0.53877-0.67713 1.554-1.516 2.423-1.1567 1.198-2.5094 1.9471-4.551 1.9471-2.6032 0-4.3498-1.498-5.2294-2.627-0.75578-0.96995-1.197-2.0025-1.4495-2.7616-0.54245-1.6316-0.74349-3.3623-0.74645-5.1397-7.4e-4 -0.36512-0.42689-3.3052-1.2904-6.475-0.87248-3.2027-2.1482-7.1091-3.6223-11.137-12.585-30.915-34.785-66.128-75.074-64.479-7.8054-0.30992-14.662-0.90794-20.74-1.9008-23.725-3.9696-39.221-21.777-43.174-41.906-0.54678-2.784-0.82578-5.6088-0.89543-8.4438zm0.22132 6.4561c0.15336 1.6586 0.35257 3.3132 0.67411 4.9502-0.32161-1.6374-0.52591-3.2908-0.67411-4.9502zm157.53 0.0651c-0.32207 0.30327-0.71449 0.55768-1.2108 0.71896 0.49471-0.16076 0.8823-0.42071 1.2108-0.71896zm-28.589 57.275c1.0318 1.2541 2.0257 2.6183 3.0176 3.9839 1.0318 1.2541 2.0257 2.6182 3.0176 3.9839 16.036 6.1359 30.124 23.462 34.225 35.518 0.40578 1.1916 1.0512 2.5986 2.1728 3.8031 0.46945 0.50366 1.6666 1.5728 3.2606 1.9934 1.2387 0.32687 2.2192 0.19155 3.1926-0.0693 0.97364-0.26003 1.9359-0.64626 2.8527-1.5623 2.1229-2.1229 2.0074-5.3754 1.9688-5.9542-0.0179-0.27972-0.11005-0.54146-0.14322-0.81588 0.17331-1.0234 0.1609-1.8813 0.14322-2.1467-0.0179-0.28021-0.11021-0.5424-0.14322-0.81734-0.20464 1.2082-0.67586 2.6591-1.8256 3.8089-0.91682 0.91607-1.879 1.3023-2.8527 1.5623-0.97344 0.26103-1.954 0.39634-3.1926 0.0693-1.594-0.42064-2.7912-1.4897-3.2606-1.9934-1.1215-1.2045-1.767-2.6115-2.1728-3.8031-4.3564-12.807-23-32.593-40.26-37.561zm53.122 42.408c-0.0574 0.15679-0.0788 0.30338-0.14901 0.46002 0.0707-0.15581 0.0908-0.30408 0.14901-0.46002zm-0.24737 0.64229c-0.2777 0.57231-0.63295 1.1349-1.1356 1.6375 0.49822-0.49821 0.85401-1.064 1.1356-1.6375z" opacity=".1" style="paint-order:stroke fill markers"/></svg>
